<svg xmlns="http://www.w3.org/2000/svg" xmlns:xlink="http://www.w3.org/1999/xlink" fill="none" version="1.1" width="277" height="243" viewBox="0 0 277 243"><defs><clipPath id="master_svg0_7_06449"><rect x="0" y="0" width="277" height="243" rx="0"/></clipPath></defs><g clip-path="url(#master_svg0_7_06449)"><path d="M22.694861955078125,193.36806330810546C25.372252955078125,196.20446330810546,29.102080955078126,197.80526330810548,32.999557955078124,197.79070330810546L131.0168339550781,197.79070330810546C132.78668395507813,204.14620330810547,135.25529395507812,210.28536330810547,138.37733395507811,216.09554330810548L32.999557955078124,216.09554330810548C14.717772955078125,216.23323330810547,-0.137466434921875,201.35662330810547,-1.8750000467179784e-12,183.04851330810547L-1.8750000467179784e-12,33.04701230810547C-0.137466434921875,14.738937308105468,14.717772955078125,-0.13765716189453125,32.999557955078124,5.468750452486404e-12L218.48405395507814,5.468750452486404e-12C224.18676395507813,-0.13403320189453125,229.82106395507813,1.2659607081054687,234.79982395507812,4.054092408105468C239.91360395507812,6.975326508105469,244.15028395507812,11.218101308105469,247.06730395507813,16.33923330810547C250.02711395507814,21.40355730810547,251.55383395507812,27.17947430810547,251.4836139550781,33.04701230810547L251.4836139550781,104.91506330810547C245.77412395507812,101.47796330810547,239.62512395507812,98.83298530810546,233.20504395507814,97.05257430810546L233.20504395507814,33.04701230810547C233.21957395507812,29.14394330810547,231.62107395507812,25.40874530810547,228.78874395507813,22.72750130810547C226.11135395507813,19.89109830810547,222.38151395507813,18.29029830810547,218.48405395507814,18.30485530810547L32.999557955078124,18.30485530810547C29.102080955078126,18.29029830810547,25.372252955078125,19.89109830810547,22.694861955078125,22.72750130810547C19.862533955078124,25.40873730810547,18.264030955078123,29.14393630810547,18.278563955078123,33.04701230810547L18.278563955078123,183.04854330810548C18.264030955078123,186.95162330810547,19.862533955078124,190.68682330810546,22.694861955078125,193.36806330810546ZM117.03205395507813,84.27657330810547C115.29466395507812,86.05987530810548,112.89479395507813,87.03900930810546,110.40760395507813,86.97930130810546L104.76456395507813,86.97930130810546C102.27739395507813,87.03900930810546,99.87751795507812,86.05987530810548,98.14012195507813,84.27657330810547C94.34522295507813,80.81651330810547,94.34522295507813,74.83724930810547,98.14012195507813,71.37717430810547C99.81843595507813,69.65589130810547,102.11694395507813,68.68204530810547,104.51922395507812,68.67445330810547L110.40760395507813,68.67445330810547C112.89479395507813,68.61475330810546,115.29466395507812,69.59389530810547,117.03205395507813,71.37718930810547C120.82695395507812,74.83725730810546,120.82695395507812,80.81651330810547,117.03205395507813,84.27657330810547ZM77.16267395507812,71.37682330810547C78.87937195507813,73.09980030810547,79.81124895507813,75.45505530810547,79.73884595507812,77.88794730810547C79.77755695507813,80.27853430810546,78.84825095507813,82.58299230810547,77.16267395507812,84.27623030810547C75.47170995507813,86.05316130810547,73.11136595507813,87.03433230810546,70.66090395507813,86.97895830810548L64.52716095507813,86.97895830810548C59.49331695507812,86.97941630810547,55.39365395507812,82.92858930810547,55.32653795507812,77.88795430810546C55.32653795507812,72.79927830810547,59.445792955078126,68.67411030810547,64.52716095507813,68.67410230810547L70.66090395507813,68.67410230810547C73.11136595507813,68.61872130810546,75.47170295507813,69.59989130810547,77.16267395507812,71.37682330810547ZM150.39943395507814,86.97895030810547C155.38542395507812,86.91279630810547,159.41131395507813,82.88111130810547,159.47737395507812,77.88795430810546C159.47737395507812,72.79927830810547,155.35810395507812,68.67410230810547,150.27674395507813,68.67410230810547L144.14300395507811,68.67410230810547C141.69255395507813,68.61872130810546,139.3322039550781,69.59989130810547,137.64123395507812,71.37682330810547C134.19853395507812,74.98552730810547,134.19853395507812,80.66751830810547,137.64123395507812,84.27622230810547C139.3322039550781,86.05314630810547,141.69255395507813,87.03431730810547,144.14300395507811,86.97894330810547L150.39943395507814,86.97895030810547ZM177.38800395507812,71.37683830810546C179.14947395507812,69.62972230810547,181.53328395507813,68.65714230810546,184.01245395507812,68.67411030810547L190.2688939550781,68.67410230810547C192.71933395507813,68.61872130810546,195.07968395507814,69.59989130810547,196.77064395507813,71.37682330810547C200.21334395507813,74.98552730810547,200.21334395507813,80.66752630810547,196.77064395507813,84.27622230810547C195.07968395507814,86.05315430810546,192.71933395507813,87.03432430810547,190.26886395507813,86.97895030810547L184.01245395507812,86.97895030810547C181.53328395507813,86.99591030810546,179.14947395507812,86.02333030810547,177.38800395507812,84.27622230810547C173.81427395507814,80.72113030810547,173.81427395507814,74.93193030810546,177.38800395507812,71.37683830810546ZM88.93940695507813,120.88750330810547L83.05100995507813,120.88750330810547C80.56384295507813,120.94720330810547,78.16397095507813,119.96808330810546,76.42656695507813,118.18478330810547C74.62592295507812,116.55101330810547,73.60069995507813,114.22979330810547,73.60504195507812,111.79650330810547C73.53851295507812,109.20813330810547,74.56257595507813,106.71116330810547,76.42656695507813,104.91682330810546C78.20791595507812,103.21461330810547,80.58932495507813,102.28717330810547,83.05100995507813,102.33694330810548L88.69406095507813,102.33694330810548C91.20021795507813,102.24003330810547,93.63727595507812,103.17187330810548,95.44118495507813,104.91682330810546C97.21172295507813,106.76378330810547,98.18176995507812,109.23655330810547,98.14002995507812,111.79650330810547C98.20781695507813,114.19240330810547,97.27404795507813,116.50792330810548,95.56385795507812,118.18477330810546C93.82646895507813,119.96808330810546,91.42658995507813,120.94720330810547,88.93940695507813,120.88750330810547ZM122.67493395507813,120.88607330810547L128.80868395507812,120.88607330810547C131.13748395507812,120.86852330810547,133.35617395507813,119.89089330810548,134.9424239550781,118.18334330810546C136.66125395507814,116.50263330810547,137.6336839550781,114.20082330810547,137.64128395507814,111.79507330810547C137.64486395507814,109.31495330810547,136.67566395507814,106.93261330810547,134.9424239550781,105.16110330810547C133.31286395507811,103.28377330810547,130.92292395507812,102.24514330810547,128.44065395507812,102.33552330810546L122.67493395507813,102.33552330810546C120.19267395507812,102.24514330810547,117.80273395507812,103.28377330810547,116.17317395507813,105.16110330810547C114.43991395507813,106.93261330810547,113.47073395507813,109.31495330810547,113.47432395507812,111.79507330810547C113.48191395507813,114.20082330810547,114.45436395507812,116.50264330810546,116.17317395507813,118.18335330810547C117.84581395507813,119.98684330810546,120.21864395507812,120.97320330810547,122.67493395507813,120.88607330810547ZM267.02633395507814,141.69436330810547C261.1266739550781,131.50238330810546,252.66867395507813,123.03220330810547,242.49133395507812,117.12408330810547C232.48455395507813,111.56006330810547,221.18005395507814,108.76167330810547,209.73712395507812,109.01590330810546C198.05601395507813,108.98926330810546,186.57946395507813,112.08518330810547,176.4922139550781,117.98404330810547C166.32531395507812,123.90575330810547,157.87045395507812,132.37279330810546,151.95723395507812,142.55431330810546C146.00619395507812,152.67548330810547,142.9109939550781,164.22486330810545,143.00195395507814,175.96988330810547C142.91227395507812,187.63726330810547,146.0089539550781,199.10723330810546,151.95721395507812,209.13976330810547C157.84311395507814,219.34230330810547,166.30430395507813,227.81565330810548,176.49220395507814,233.71003330810547C186.5459339550781,239.70256330810548,198.03741395507814,242.84499330810547,209.73712395507812,242.80101330810547C221.40261395507812,242.87893330810547,232.86361395507814,239.73327330810548,242.85937395507813,233.71003330810547C253.05792395507814,227.82958330810547,261.52237395507814,219.35299330810548,267.3943439550781,209.13976330810547C273.34259395507814,199.10720330810548,276.4393039550781,187.63726330810547,276.3496139550781,175.96988330810547C276.4873339550781,163.89849330810546,273.25848395507813,152.02810330810547,267.02633395507814,141.69436330810547ZM58.025443955078124,138.82404330810547C56.25106795507813,140.51743330810547,55.271300955078125,142.88118330810548,55.326598955078126,145.33516330810548C55.239600955078124,147.79499330810546,56.22454795507812,150.17122330810548,58.025443955078124,151.84627330810548C59.733420955078124,153.59823330810548,62.08241295507813,154.57470330810546,64.52722195507812,154.54900330810545L131.26237395507812,154.54900330810545C133.11718395507813,148.16654330810547,135.7109639550781,142.02320330810548,138.99090395507812,136.24416330810547L64.52722195507812,136.24416330810547C62.09783195507813,136.17165330810548,59.745955955078124,137.10488330810546,58.025443955078124,138.82404330810547ZM166.46872395507813,145.99999330810547L207.81559395507813,145.99999330810547L206.65556395507812,159.86000330810546L179.72624395507813,159.86000330810546L178.81478395507813,170.77999330810547L203.09260395507812,170.77999330810547L201.9325739550781,184.21999330810547L177.65475395507812,184.21999330810547L176.74330395507812,195.55999330810548L203.42404395507813,195.55999330810548L202.26400395507812,208.99999330810547L161.0000039550781,208.99999330810547L166.46872395507813,145.99999330810547ZM263.0000039550781,145.99999330810547L257.4484239550781,208.99999330810547L242.69943395507812,208.99999330810547L228.2818739550781,170.61199330810547L224.88464395507813,208.99999330810547L210.71566395507813,208.99999330810547L216.26725395507813,145.99999330810547L232.50772395507812,145.99999330810547L245.84808395507812,179.85199330810548L248.83102395507814,145.99999330810547L263.0000039550781,145.99999330810547Z" fill-rule="evenodd" fill="#000000" fill-opacity="1" style="mix-blend-mode:passthrough"/></g></svg>