<svg xmlns="http://www.w3.org/2000/svg" width="24" height="24" viewBox="0 0 24 24">
  <path d="M146 184V575Q146 598 162.0 613.5Q178 629 200 629H415V692H200Q169 692 142.0 676.0Q115 660 99.0 633.0Q83 606 83 575V184Q83 152 99.0 125.0Q115 98 141.5 82.5Q168 67 200 67H415V129H200Q178 129 162.0 145.0Q146 161 146 184ZM585 692V629H800Q823 629 838.5 613.5Q854 598 854 575V184Q854 161 838.0 145.0Q822 129 800 129H585V67H800Q832 67 858.5 82.5Q885 98 901.0 125.0Q917 152 917 184V575Q917 606 901.0 633.0Q885 660 858.0 676.0Q831 692 800 692ZM531 17V743H563Q576 743 585.0 752.0Q594 761 594 774Q594 787 585.0 796.0Q576 805 563 805H437Q424 805 414.5 796.0Q405 787 405 774Q405 761 414.5 752.0Q424 743 437 743H469V17H437Q424 17 414.5 8.0Q405 -1 405 -14Q405 -27 414.5 -36.0Q424 -45 437 -45H500H563Q576 -45 585.0 -36.0Q594 -27 594 -14Q594 -1 585.0 8.0Q576 17 563 17Z" transform="translate(0, 21.12) scale(0.024, -0.024)"/>
</svg>